<?xml version="1.0" standalone="no"?>
<!DOCTYPE svg PUBLIC "-//W3C//DTD SVG 20010904//EN"
 "http://www.w3.org/TR/2001/REC-SVG-20010904/DTD/svg10.dtd">
<svg version="1.0" xmlns="http://www.w3.org/2000/svg"
 width="300.000000pt" height="300.000000pt" viewBox="0 0 300.000000 300.000000"
 preserveAspectRatio="xMidYMid meet">
<metadata>
Created by potrace 1.10, written by Peter Selinger 2001-2011
</metadata>
<g transform="translate(0.000000,300.000000) scale(0.100000,-0.100000)"
fill="#000000" stroke="none">
<path d="M1441 2597 c-12 -16 -24 -54 -126 -407 -43 -146 -81 -273 -86 -282
-9 -17 -38 -18 -372 -19 -341 -1 -443 -7 -407 -22 8 -4 192 -8 408 -9 l393 -3
5 25 c3 14 10 36 14 50 5 14 19 61 30 105 12 44 51 179 86 299 35 121 64 230
64 243 0 18 5 24 17 21 12 -2 20 -17 25 -48 4 -25 49 -191 101 -370 75 -259
97 -325 111 -324 9 0 190 1 403 2 310 2 385 5 375 15 -10 9 -108 13 -395 17
l-382 5 -31 110 c-89 312 -167 571 -175 587 -11 21 -42 24 -58 5z"/>
<path d="M1456 2435 c-20 -154 -37 -387 -43 -588 l-6 -228 -159 3 c-87 2 -158
1 -158 -2 0 -3 27 -29 59 -58 l60 -52 105 0 106 0 0 -65 c0 -60 24 -300 36
-352 2 -13 8 -23 12 -23 8 0 38 220 49 358 l6 82 104 0 105 0 58 48 c33 26 59
52 59 57 1 6 -59 9 -164 7 l-166 -3 6 48 c12 90 -33 740 -55 798 -5 15 -9 8
-14 -30z m36 -560 c9 -197 14 -254 26 -267 13 -15 33 -18 129 -18 62 0 113 -3
113 -7 0 -3 -7 -15 -17 -25 -13 -15 -32 -18 -110 -18 -124 0 -137 -11 -147
-128 -6 -73 -23 -150 -26 -112 0 8 -5 58 -10 110 -13 123 -20 130 -139 130
-84 0 -131 14 -131 41 0 5 47 9 109 9 117 0 136 7 145 53 3 12 7 117 10 232
10 389 31 389 48 0z"/>
<path d="M431 1829 c9 -13 71 -67 138 -119 488 -379 446 -343 444 -381 -1 -19
-40 -182 -87 -364 -95 -372 -102 -405 -88 -405 5 0 13 10 16 23 22 77 43 156
92 347 52 204 100 386 110 421 3 12 -76 78 -288 241 -161 123 -306 232 -323
243 l-30 19 16 -25z"/>
<path d="M2470 1822 c-18 -12 -554 -420 -590 -449 -2 -2 6 -45 19 -96 130
-510 171 -666 182 -692 11 -27 13 -28 16 -8 2 12 -36 181 -85 375 -49 194 -92
365 -96 380 -6 25 11 39 288 253 258 198 326 257 298 254 -4 0 -18 -8 -32 -17z"/>
<path d="M1190 819 c-300 -240 -344 -279 -318 -279 9 0 143 101 297 225 154
124 288 225 298 225 14 0 347 -258 543 -421 57 -47 76 -35 22 14 -41 39 -561
458 -565 457 -1 -1 -126 -100 -277 -221z"/>
</g>
</svg>
